0 Leveler 32 studs
0 Name: Leveler_32studs.ldr
0 Author: generated
1 72 40 0 30 1 0 0 0 1 0 0 0 1 3010.dat
1 72 10 0 70 0 0 1 0 1 0 -1 0 0 3622.dat
1 0 20 0 160 0 0 1 0 1 0 -1 0 0 2456.dat
1 72 40 0 240 1 0 0 0 1 0 0 0 1 3001.dat
1 72 40 0 270 1 0 0 0 1 0 0 0 1 3010.dat
1 0 30 0 60 0 0 1 0 1 0 -1 0 0 3004.dat
1 72 50 0 90 1 0 0 0 1 0 0 0 1 3622.dat
1 72 60 0 60 1 0 0 0 1 0 0 0 1 3003.dat
1 72 60 0 160 0 0 1 0 1 0 -1 0 0 2456.dat
1 72 100 0 400 0 0 1 0 1 0 -1 0 0 3006.dat
1 72 110 0 540 1 0 0 0 1 0 0 0 1 3002.dat
1 71 90 0 620 0 0 1 0 1 0 -1 0 0 3004.dat
1 484 120 0 510 1 0 0 0 1 0 0 0 1 3004.dat
1 72 120 0 570 1 0 0 0 1 0 0 0 1 3004.dat
1 71 120 0 590 1 0 0 0 1 0 0 0 1 3004.dat
1 72 120 0 610 1 0 0 0 1 0 0 0 1 3004.dat
1 71 120 0 630 1 0 0 0 1 0 0 0 1 3004.dat
1 72 130 0 400 0 0 1 0 1 0 -1 0 0 6111.dat
1 72 160 0 330 0 0 1 0 1 0 -1 0 0 3002.dat
1 72 150 0 370 1 0 0 0 1 0 0 0 1 3005.dat
1 71 170 0 390 1 0 0 0 1 0 0 0 1 3622.dat
1 72 150 0 410 1 0 0 0 1 0 0 0 1 3005.dat
1 0 220 0 370 1 0 0 0 1 0 0 0 1 3009.dat
1 0 230 0 430 1 0 0 0 1 0 0 0 1 3005.dat
1 0 230 0 490 1 0 0 0 1 0 0 0 1 3005.dat
1 71 290 0 390 1 0 0 0 1 0 0 0 1 3622.dat
1 72 320 0 320 1 0 0 0 1 0 0 0 1 3001.dat
1 0 290 0 370 1 0 0 0 1 0 0 0 1 3005.dat
1 72 340 0 360 1 0 0 0 1 0 0 0 1 3001.dat
1 72 340 0 440 0 0 1 0 1 0 -1 0 0 2456.dat
1 72 350 0 540 1 0 0 0 1 0 0 0 1 3002.dat
1 71 330 0 620 0 0 1 0 1 0 -1 0 0 3004.dat
1 484 360 0 510 1 0 0 0 1 0 0 0 1 3004.dat
1 72 360 0 570 1 0 0 0 1 0 0 0 1 3004.dat
1 71 350 0 590 1 0 0 0 1 0 0 0 1 3005.dat
1 72 360 0 610 1 0 0 0 1 0 0 0 1 3004.dat
1 71 360 0 630 1 0 0 0 1 0 0 0 1 3004.dat
1 72 370 0 320 0 0 1 0 1 0 -1 0 0 3004.dat
1 72 370 0 440 0 0 1 0 1 0 -1 0 0 3009.dat
1 72 370 0 590 1 0 0 0 1 0 0 0 1 3005.dat
1 0 390 0 140 0 0 1 0 1 0 -1 0 0 6112.dat
1 0 390 0 270 1 0 0 0 1 0 0 0 1 3005.dat
1 72 420 0 120 0 0 1 0 1 0 -1 0 0 3006.dat
1 72 430 0 240 1 0 0 0 1 0 0 0 1 3002.dat
1 72 430 0 270 1 0 0 0 1 0 0 0 1 3622.dat
1 72 450 0 60 0 0 1 0 1 0 -1 0 0 3010.dat
1 0 460 0 160 0 0 1 0 1 0 -1 0 0 2456.dat
1 72 470 0 30 1 0 0 0 1 0 0 0 1 3005.dat
1 0 470 0 70 0 0 1 0 1 0 -1 0 0 3622.dat
1 0 470 0 250 0 0 1 0 1 0 -1 0 0 3622.dat
1 72 10 -24 30 1 0 0 0 1 0 0 0 1 3005.dat
1 0 20 -24 140 0 0 1 0 1 0 -1 0 0 3006.dat
1 0 20 -24 250 1 0 0 0 1 0 0 0 1 3004.dat
1 72 10 -24 280 0 0 1 0 1 0 -1 0 0 3004.dat
1 0 30 -24 30 1 0 0 0 1 0 0 0 1 3005.dat
1 0 30 -24 270 1 0 0 0 1 0 0 0 1 3005.dat
1 72 30 -24 290 1 0 0 0 1 0 0 0 1 3005.dat
1 72 60 -24 30 1 0 0 0 1 0 0 0 1 3004.dat
1 72 50 -24 270 1 0 0 0 1 0 0 0 1 3005.dat
1 0 80 -24 550 1 0 0 0 1 0 0 0 1 3010.dat
1 0 70 -24 120 0 0 1 0 1 0 -1 0 0 3008.dat
1 484 100 -24 210 1 0 0 0 1 0 0 0 1 3010.dat
1 0 70 -24 250 0 0 1 0 1 0 -1 0 0 3622.dat
1 72 120 -24 290 1 0 0 0 1 0 0 0 1 3009.dat
1 71 70 -24 530 1 0 0 0 1 0 0 0 1 3005.dat
1 484 100 -24 140 0 0 1 0 1 0 -1 0 0 3001.dat
1 484 120 -24 190 1 0 0 0 1 0 0 0 1 3010.dat
1 72 200 -24 310 1 0 0 0 1 0 0 0 1 6112.dat
1 72 90 -24 400 0 0 1 0 1 0 -1 0 0 3008.dat
1 72 110 -24 490 1 0 0 0 1 0 0 0 1 3622.dat
1 72 110 -24 530 1 0 0 0 1 0 0 0 1 3622.dat
1 71 90 -24 620 0 0 1 0 1 0 -1 0 0 3004.dat
1 72 140 -24 270 1 0 0 0 1 0 0 0 1 3010.dat
1 72 130 -24 400 1 0 0 0 1 0 0 0 1 3002.dat
1 72 120 -24 470 1 0 0 0 1 0 0 0 1 3004.dat
1 484 120 -24 510 1 0 0 0 1 0 0 0 1 3004.dat
1 72 120 -24 590 0 0 1 0 1 0 -1 0 0 3002.dat
1 71 120 -24 630 1 0 0 0 1 0 0 0 1 3004.dat
1 484 130 -24 140 0 0 1 0 1 0 -1 0 0 3010.dat
1 72 140 -24 430 1 0 0 0 1 0 0 0 1 3004.dat
1 72 130 -24 450 1 0 0 0 1 0 0 0 1 3005.dat
1 72 130 -24 550 1 0 0 0 1 0 0 0 1 3005.dat
1 484 150 -24 150 0 0 1 0 1 0 -1 0 0 3622.dat
1 71 150 -24 350 1 0 0 0 1 0 0 0 1 3005.dat
1 72 150 -24 370 1 0 0 0 1 0 0 0 1 3005.dat
1 72 170 -24 330 1 0 0 0 1 0 0 0 1 3005.dat
1 0 170 -24 370 0 0 1 0 1 0 -1 0 0 3622.dat
1 72 190 -24 280 0 0 1 0 1 0 -1 0 0 3004.dat
1 0 200 -24 330 1 0 0 0 1 0 0 0 1 3004.dat
1 71 190 -24 350 1 0 0 0 1 0 0 0 1 3005.dat
1 0 200 -24 370 1 0 0 0 1 0 0 0 1 3004.dat
1 0 190 -24 390 1 0 0 0 1 0 0 0 1 3005.dat
1 0 210 -24 290 1 0 0 0 1 0 0 0 1 3005.dat
1 0 210 -24 350 1 0 0 0 1 0 0 0 1 3005.dat
1 71 230 -24 350 0 0 1 0 1 0 -1 0 0 3622.dat
1 0 250 -24 290 1 0 0 0 1 0 0 0 1 3005.dat
1 72 250 -24 330 1 0 0 0 1 0 0 0 1 3005.dat
1 71 270 -24 350 1 0 0 0 1 0 0 0 1 3622.dat
1 71 250 -24 370 1 0 0 0 1 0 0 0 1 3005.dat
1 72 320 -24 280 1 0 0 0 1 0 0 0 1 2456.dat
1 0 270 -24 330 1 0 0 0 1 0 0 0 1 3005.dat
1 0 280 -24 370 1 0 0 0 1 0 0 0 1 3004.dat
1 72 300 -24 330 1 0 0 0 1 0 0 0 1 3004.dat
1 0 300 -24 390 1 0 0 0 1 0 0 0 1 3004.dat
1 72 310 -24 360 0 0 1 0 1 0 -1 0 0 3004.dat
1 484 340 -24 160 0 0 1 0 1 0 -1 0 0 3001.dat
1 484 360 -24 210 1 0 0 0 1 0 0 0 1 3010.dat
1 72 350 -24 310 1 0 0 0 1 0 0 0 1 3622.dat
1 72 330 -24 440 0 0 1 0 1 0 -1 0 0 3009.dat
1 72 340 -24 540 1 0 0 0 1 0 0 0 1 3003.dat
1 71 330 -24 620 0 0 1 0 1 0 -1 0 0 3004.dat
1 484 360 -24 110 1 0 0 0 1 0 0 0 1 3004.dat
1 72 360 -24 400 1 0 0 0 1 0 0 0 1 3003.dat
1 72 360 -24 480 1 0 0 0 1 0 0 0 1 3003.dat
1 484 360 -24 510 1 0 0 0 1 0 0 0 1 3004.dat
1 72 360 -24 590 0 0 1 0 1 0 -1 0 0 3002.dat
1 71 360 -24 630 1 0 0 0 1 0 0 0 1 3004.dat
1 484 370 -24 160 0 0 1 0 1 0 -1 0 0 3010.dat
1 72 370 -24 350 0 0 1 0 1 0 -1 0 0 3622.dat
1 72 370 -24 440 0 0 1 0 1 0 -1 0 0 3004.dat
1 72 370 -24 530 1 0 0 0 1 0 0 0 1 3005.dat
1 0 390 -24 550 1 0 0 0 1 0 0 0 1 3622.dat
1 0 390 -24 100 0 0 1 0 1 0 -1 0 0 3008.dat
1 0 390 -24 190 1 0 0 0 1 0 0 0 1 3005.dat
1 0 390 -24 250 0 0 1 0 1 0 -1 0 0 3622.dat
1 71 400 -24 530 1 0 0 0 1 0 0 0 1 3004.dat
1 72 430 -24 30 1 0 0 0 1 0 0 0 1 3622.dat
1 72 430 -24 280 1 0 0 0 1 0 0 0 1 3002.dat
1 0 460 -24 140 0 0 1 0 1 0 -1 0 0 3006.dat
1 0 460 -24 250 1 0 0 0 1 0 0 0 1 3004.dat
1 0 470 -24 30 1 0 0 0 1 0 0 0 1 3005.dat
1 0 470 -24 270 1 0 0 0 1 0 0 0 1 3005.dat
1 72 40 -48 30 1 0 0 0 1 0 0 0 1 3010.dat
1 72 10 -48 70 0 0 1 0 1 0 -1 0 0 3622.dat
1 0 20 -48 120 1 0 0 0 1 0 0 0 1 3003.dat
1 72 10 -48 150 1 0 0 0 1 0 0 0 1 3005.dat
1 0 20 -48 180 1 0 0 0 1 0 0 0 1 3003.dat
1 72 10 -48 240 0 0 1 0 1 0 -1 0 0 3010.dat
1 72 20 -48 290 1 0 0 0 1 0 0 0 1 3004.dat
1 0 30 -48 70 0 0 1 0 1 0 -1 0 0 3622.dat
1 0 30 -48 150 1 0 0 0 1 0 0 0 1 3005.dat
1 0 30 -48 230 0 0 1 0 1 0 -1 0 0 3622.dat
1 72 180 -48 270 1 0 0 0 1 0 0 0 1 2465.dat
1 72 50 -48 140 0 0 1 0 1 0 -1 0 0 6111.dat
1 72 50 -48 250 1 0 0 0 1 0 0 0 1 3005.dat
1 72 70 -48 50 1 0 0 0 1 0 0 0 1 3005.dat
1 0 70 -48 100 0 0 1 0 1 0 -1 0 0 3010.dat
1 0 70 -48 150 1 0 0 0 1 0 0 0 1 3005.dat
1 72 80 -48 170 1 0 0 0 1 0 0 0 1 3004.dat
1 0 70 -48 220 0 0 1 0 1 0 -1 0 0 3010.dat
1 72 220 -48 290 1 0 0 0 1 0 0 0 1 2465.dat
1 484 110 -48 110 1 0 0 0 1 0 0 0 1 3622.dat
1 484 90 -48 130 1 0 0 0 1 0 0 0 1 3005.dat
1 72 120 -48 150 1 0 0 0 1 0 0 0 1 3010.dat
1 72 110 -48 190 1 0 0 0 1 0 0 0 1 3622.dat
1 484 110 -48 210 1 0 0 0 1 0 0 0 1 3622.dat
1 72 140 -48 320 1 0 0 0 1 0 0 0 1 2456.dat
1 72 90 -48 370 0 0 1 0 1 0 -1 0 0 3622.dat
1 484 100 -48 440 0 0 1 0 1 0 -1 0 0 3001.dat
1 72 120 -48 130 1 0 0 0 1 0 0 0 1 3004.dat
1 484 120 -48 170 1 0 0 0 1 0 0 0 1 3004.dat
1 72 140 -48 250 1 0 0 0 1 0 0 0 1 3010.dat
1 0 110 -48 350 1 0 0 0 1 0 0 0 1 3005.dat
1 72 130 -48 390 1 0 0 0 1 0 0 0 1 3622.dat
1 72 160 -48 350 1 0 0 0 1 0 0 0 1 3010.dat
1 484 130 -48 440 0 0 1 0 1 0 -1 0 0 3010.dat
1 484 150 -48 130 1 0 0 0 1 0 0 0 1 3005.dat
1 72 150 -48 170 1 0 0 0 1 0 0 0 1 3005.dat
1 484 150 -48 190 1 0 0 0 1 0 0 0 1 3005.dat
1 72 150 -48 370 1 0 0 0 1 0 0 0 1 3005.dat
1 484 150 -48 410 1 0 0 0 1 0 0 0 1 3005.dat
1 0 220 -48 130 1 0 0 0 1 0 0 0 1 3009.dat
1 0 220 -48 210 1 0 0 0 1 0 0 0 1 3009.dat
1 72 240 -48 230 1 0 0 0 1 0 0 0 1 3008.dat
1 72 190 -48 250 1 0 0 0 1 0 0 0 1 3005.dat
1 4 240 -48 250 1 0 0 0 1 0 0 0 1 3010.dat
1 72 210 -48 310 1 0 0 0 1 0 0 0 1 3005.dat
1 0 210 -48 330 1 0 0 0 1 0 0 0 1 3005.dat
1 0 240 -48 310 1 0 0 0 1 0 0 0 1 3004.dat
1 72 320 -48 320 1 0 0 0 1 0 0 0 1 2456.dat
1 0 270 -48 350 1 0 0 0 1 0 0 0 1 3005.dat
1 0 290 -48 130 1 0 0 0 1 0 0 0 1 3005.dat
1 0 290 -48 210 1 0 0 0 1 0 0 0 1 3005.dat
1 72 320 -48 250 1 0 0 0 1 0 0 0 1 3010.dat
1 72 310 -48 350 1 0 0 0 1 0 0 0 1 3622.dat
1 72 310 -48 370 1 0 0 0 1 0 0 0 1 3005.dat
1 484 330 -48 130 1 0 0 0 1 0 0 0 1 3005.dat
1 72 350 -48 150 1 0 0 0 1 0 0 0 1 3622.dat
1 72 330 -48 180 0 0 1 0 1 0 -1 0 0 3004.dat
1 484 350 -48 210 1 0 0 0 1 0 0 0 1 3622.dat
1 72 350 -48 390 1 0 0 0 1 0 0 0 1 3622.dat
1 484 340 -48 440 0 0 1 0 1 0 -1 0 0 3001.dat
1 484 360 -48 110 1 0 0 0 1 0 0 0 1 3004.dat
1 72 360 -48 130 1 0 0 0 1 0 0 0 1 3004.dat
1 484 350 -48 170 1 0 0 0 1 0 0 0 1 3005.dat
1 72 360 -48 190 1 0 0 0 1 0 0 0 1 3004.dat
1 72 360 -48 270 1 0 0 0 1 0 0 0 1 3004.dat
1 0 350 -48 350 1 0 0 0 1 0 0 0 1 3005.dat
1 72 370 -48 170 1 0 0 0 1 0 0 0 1 3005.dat
1 72 370 -48 360 0 0 1 0 1 0 -1 0 0 3004.dat
1 484 370 -48 440 0 0 1 0 1 0 -1 0 0 3010.dat
1 0 390 -48 140 0 0 1 0 1 0 -1 0 0 6112.dat
1 0 390 -48 270 1 0 0 0 1 0 0 0 1 3005.dat
1 484 390 -48 410 1 0 0 0 1 0 0 0 1 3005.dat
1 72 420 -48 120 0 0 1 0 1 0 -1 0 0 3006.dat
1 72 420 -48 260 0 0 1 0 1 0 -1 0 0 3001.dat
1 72 450 -48 40 0 0 1 0 1 0 -1 0 0 3004.dat
1 0 460 -48 70 1 0 0 0 1 0 0 0 1 3004.dat
1 72 450 -48 90 1 0 0 0 1 0 0 0 1 3005.dat
1 0 460 -48 120 1 0 0 0 1 0 0 0 1 3003.dat
1 72 450 -48 150 1 0 0 0 1 0 0 0 1 3005.dat
1 0 460 -48 180 1 0 0 0 1 0 0 0 1 3003.dat
1 72 450 -48 220 0 0 1 0 1 0 -1 0 0 3004.dat
1 0 460 -48 250 1 0 0 0 1 0 0 0 1 3004.dat
1 72 450 -48 280 0 0 1 0 1 0 -1 0 0 3004.dat
1 0 470 -48 40 0 0 1 0 1 0 -1 0 0 3004.dat
1 0 470 -48 90 1 0 0 0 1 0 0 0 1 3005.dat
1 0 470 -48 150 1 0 0 0 1 0 0 0 1 3005.dat
1 0 470 -48 220 0 0 1 0 1 0 -1 0 0 3004.dat
1 0 470 -48 270 1 0 0 0 1 0 0 0 1 3005.dat
1 72 20 -72 140 0 0 1 0 1 0 -1 0 0 3006.dat
1 72 20 -72 250 1 0 0 0 1 0 0 0 1 3004.dat
1 72 70 -72 140 0 0 1 0 1 0 -1 0 0 6111.dat
1 72 70 -72 250 1 0 0 0 1 0 0 0 1 3005.dat
1 0 110 -72 150 1 0 0 0 1 0 0 0 1 3622.dat
1 0 90 -72 180 0 0 1 0 1 0 -1 0 0 3004.dat
1 72 140 -72 300 1 0 0 0 1 0 0 0 1 2456.dat
1 72 140 -72 330 1 0 0 0 1 0 0 0 1 3009.dat
1 72 90 -72 370 0 0 1 0 1 0 -1 0 0 3622.dat
1 0 120 -72 130 1 0 0 0 1 0 0 0 1 3004.dat
1 0 120 -72 190 1 0 0 0 1 0 0 0 1 3004.dat
1 72 140 -72 260 1 0 0 0 1 0 0 0 1 3001.dat
1 484 110 -72 370 0 0 1 0 1 0 -1 0 0 3622.dat
1 0 130 -72 170 1 0 0 0 1 0 0 0 1 3005.dat
1 72 160 -72 350 1 0 0 0 1 0 0 0 1 3010.dat
1 484 130 -72 380 0 0 1 0 1 0 -1 0 0 3004.dat
1 72 130 -72 410 1 0 0 0 1 0 0 0 1 3005.dat
1 72 180 -72 160 1 0 0 0 1 0 0 0 1 3001.dat
1 72 180 -72 190 1 0 0 0 1 0 0 0 1 3010.dat
1 72 150 -72 380 0 0 1 0 1 0 -1 0 0 3004.dat
1 484 220 -72 110 1 0 0 0 1 0 0 0 1 3009.dat
1 0 220 -72 130 1 0 0 0 1 0 0 0 1 3009.dat
1 0 220 -72 210 1 0 0 0 1 0 0 0 1 3009.dat
1 484 190 -72 230 1 0 0 0 1 0 0 0 1 3622.dat
1 484 240 -72 60 1 0 0 0 1 0 0 0 1 2456.dat
1 484 240 -72 90 1 0 0 0 1 0 0 0 1 3009.dat
1 320 190 -72 250 1 0 0 0 1 0 0 0 1 3005.dat
1 72 280 -72 270 1 0 0 0 1 0 0 0 1 6111.dat
1 4 240 -72 250 1 0 0 0 1 0 0 0 1 3010.dat
1 72 210 -72 300 0 0 1 0 1 0 -1 0 0 3004.dat
1 484 240 -72 170 0 0 1 0 1 0 -1 0 0 3002.dat
1 72 230 -72 230 1 0 0 0 1 0 0 0 1 3005.dat
1 484 270 -72 230 1 0 0 0 1 0 0 0 1 3622.dat
1 0 250 -72 300 0 0 1 0 1 0 -1 0 0 3004.dat
1 72 290 -72 160 1 0 0 0 1 0 0 0 1 3002.dat
1 72 290 -72 190 1 0 0 0 1 0 0 0 1 3622.dat
1 72 320 -72 300 1 0 0 0 1 0 0 0 1 2456.dat
1 72 320 -72 330 1 0 0 0 1 0 0 0 1 3009.dat
1 484 290 -72 110 1 0 0 0 1 0 0 0 1 3005.dat
1 0 290 -72 130 1 0 0 0 1 0 0 0 1 3005.dat
1 0 290 -72 210 1 0 0 0 1 0 0 0 1 3005.dat
1 72 320 -72 250 1 0 0 0 1 0 0 0 1 3010.dat
1 72 310 -72 350 1 0 0 0 1 0 0 0 1 3622.dat
1 72 310 -72 370 1 0 0 0 1 0 0 0 1 3005.dat
1 0 350 -72 150 1 0 0 0 1 0 0 0 1 3622.dat
1 0 330 -72 180 0 0 1 0 1 0 -1 0 0 3004.dat
1 484 340 -72 380 1 0 0 0 1 0 0 0 1 3003.dat
1 72 330 -72 410 1 0 0 0 1 0 0 0 1 3005.dat
1 0 350 -72 130 1 0 0 0 1 0 0 0 1 3005.dat
1 0 360 -72 190 1 0 0 0 1 0 0 0 1 3004.dat
1 484 350 -72 350 1 0 0 0 1 0 0 0 1 3005.dat
1 484 350 -72 410 1 0 0 0 1 0 0 0 1 3005.dat
1 0 370 -72 170 1 0 0 0 1 0 0 0 1 3005.dat
1 72 370 -72 370 0 0 1 0 1 0 -1 0 0 3622.dat
1 72 420 -72 140 0 0 1 0 1 0 -1 0 0 3006.dat
1 72 430 -72 250 1 0 0 0 1 0 0 0 1 3622.dat
1 72 450 -72 140 0 0 1 0 1 0 -1 0 0 6111.dat
1 0 110 -96 150 1 0 0 0 1 0 0 0 1 3622.dat
1 0 90 -96 180 0 0 1 0 1 0 -1 0 0 3004.dat
1 0 120 -96 130 1 0 0 0 1 0 0 0 1 3004.dat
1 0 120 -96 190 1 0 0 0 1 0 0 0 1 3004.dat
1 72 130 -96 250 1 0 0 0 1 0 0 0 1 3622.dat
1 72 110 -96 280 0 0 1 0 1 0 -1 0 0 3004.dat
1 484 130 -96 310 1 0 0 0 1 0 0 0 1 3622.dat
1 484 110 -96 330 1 0 0 0 1 0 0 0 1 3005.dat
1 0 130 -96 170 1 0 0 0 1 0 0 0 1 3005.dat
1 484 150 -96 280 1 0 0 0 1 0 0 0 1 3002.dat
1 72 150 -96 160 0 0 1 0 1 0 -1 0 0 3010.dat
1 484 150 -96 330 1 0 0 0 1 0 0 0 1 3005.dat
1 72 170 -96 110 1 0 0 0 1 0 0 0 1 3005.dat
1 0 170 -96 140 0 0 1 0 1 0 -1 0 0 3004.dat
1 72 170 -96 170 1 0 0 0 1 0 0 0 1 3005.dat
1 0 170 -96 210 0 0 1 0 1 0 -1 0 0 3622.dat
1 484 170 -96 250 1 0 0 0 1 0 0 0 1 3005.dat
1 72 170 -96 310 1 0 0 0 1 0 0 0 1 3005.dat
1 484 240 -96 30 1 0 0 0 1 0 0 0 1 3009.dat
1 484 190 -96 80 0 0 1 0 1 0 -1 0 0 3010.dat
1 72 200 -96 130 1 0 0 0 1 0 0 0 1 3004.dat
1 0 190 -96 160 0 0 1 0 1 0 -1 0 0 3004.dat
1 72 200 -96 200 1 0 0 0 1 0 0 0 1 3003.dat
1 0 190 -96 250 0 0 1 0 1 0 -1 0 0 3622.dat
1 72 220 -96 290 1 0 0 0 1 0 0 0 1 3010.dat
1 484 230 -96 250 1 0 0 0 1 0 0 0 1 3622.dat
1 0 240 -96 270 1 0 0 0 1 0 0 0 1 3010.dat
1 72 210 -96 310 1 0 0 0 1 0 0 0 1 3005.dat
1 72 240 -96 230 1 0 0 0 1 0 0 0 1 3004.dat
1 323 230 -96 310 1 0 0 0 1 0 0 0 1 3005.dat
1 72 250 -96 310 1 0 0 0 1 0 0 0 1 3005.dat
1 72 270 -96 130 1 0 0 0 1 0 0 0 1 3005.dat
1 72 290 -96 190 1 0 0 0 1 0 0 0 1 3622.dat
1 72 270 -96 210 1 0 0 0 1 0 0 0 1 3005.dat
1 0 280 -96 250 1 0 0 0 1 0 0 0 1 3004.dat
1 0 270 -96 290 1 0 0 0 1 0 0 0 1 3005.dat
1 484 290 -96 70 0 0 1 0 1 0 -1 0 0 3622.dat
1 0 290 -96 140 0 0 1 0 1 0 -1 0 0 3010.dat
1 0 300 -96 220 1 0 0 0 1 0 0 0 1 3003.dat
1 0 290 -96 270 1 0 0 0 1 0 0 0 1 3005.dat
1 72 290 -96 290 1 0 0 0 1 0 0 0 1 3005.dat
1 72 310 -96 140 0 0 1 0 1 0 -1 0 0 3010.dat
1 484 310 -96 280 0 0 1 0 1 0 -1 0 0 3010.dat
1 0 330 -96 160 0 0 1 0 1 0 -1 0 0 3010.dat
1 72 340 -96 250 1 0 0 0 1 0 0 0 1 3004.dat
1 484 330 -96 300 0 0 1 0 1 0 -1 0 0 3010.dat
1 0 350 -96 140 0 0 1 0 1 0 -1 0 0 3004.dat
1 0 360 -96 190 1 0 0 0 1 0 0 0 1 3004.dat
1 72 350 -96 270 1 0 0 0 1 0 0 0 1 3005.dat
1 484 350 -96 310 0 0 1 0 1 0 -1 0 0 3622.dat
1 0 370 -96 160 0 0 1 0 1 0 -1 0 0 3004.dat
1 72 370 -96 300 0 0 1 0 1 0 -1 0 0 3004.dat
1 0 110 -120 160 1 0 0 0 1 0 0 0 1 3002.dat
1 0 120 -120 190 1 0 0 0 1 0 0 0 1 3004.dat
1 0 130 -120 130 1 0 0 0 1 0 0 0 1 3005.dat
1 72 150 -120 160 0 0 1 0 1 0 -1 0 0 3010.dat
1 72 170 -120 80 0 0 1 0 1 0 -1 0 0 3010.dat
1 0 170 -120 140 0 0 1 0 1 0 -1 0 0 3004.dat
1 72 170 -120 170 1 0 0 0 1 0 0 0 1 3005.dat
1 0 170 -120 210 0 0 1 0 1 0 -1 0 0 3622.dat
1 484 170 -120 270 0 0 1 0 1 0 -1 0 0 3622.dat
1 484 240 -120 30 1 0 0 0 1 0 0 0 1 3009.dat
1 72 190 -120 50 1 0 0 0 1 0 0 0 1 3005.dat
1 484 190 -120 70 1 0 0 0 1 0 0 0 1 3005.dat
1 72 190 -120 90 1 0 0 0 1 0 0 0 1 3005.dat
1 484 190 -120 110 1 0 0 0 1 0 0 0 1 3005.dat
1 72 190 -120 130 1 0 0 0 1 0 0 0 1 3005.dat
1 0 190 -120 150 1 0 0 0 1 0 0 0 1 3005.dat
1 72 190 -120 200 0 0 1 0 1 0 -1 0 0 3004.dat
1 0 190 -120 250 0 0 1 0 1 0 -1 0 0 3622.dat
1 484 240 -120 290 1 0 0 0 1 0 0 0 1 3009.dat
1 484 190 -120 310 1 0 0 0 1 0 0 0 1 3005.dat
1 484 230 -120 250 1 0 0 0 1 0 0 0 1 3622.dat
1 0 240 -120 270 1 0 0 0 1 0 0 0 1 3010.dat
1 0 210 -120 310 1 0 0 0 1 0 0 0 1 3005.dat
1 484 240 -120 330 1 0 0 0 1 0 0 0 1 3010.dat
1 72 240 -120 230 1 0 0 0 1 0 0 0 1 3004.dat
1 484 250 -120 310 1 0 0 0 1 0 0 0 1 3622.dat
1 484 240 -120 350 1 0 0 0 1 0 0 0 1 3004.dat
1 72 270 -120 130 1 0 0 0 1 0 0 0 1 3005.dat
1 72 270 -120 210 1 0 0 0 1 0 0 0 1 3005.dat
1 0 280 -120 240 1 0 0 0 1 0 0 0 1 3003.dat
1 72 290 -120 70 0 0 1 0 1 0 -1 0 0 3622.dat
1 484 290 -120 110 1 0 0 0 1 0 0 0 1 3005.dat
1 0 290 -120 140 0 0 1 0 1 0 -1 0 0 3004.dat
1 72 300 -120 170 1 0 0 0 1 0 0 0 1 3004.dat
1 0 290 -120 200 0 0 1 0 1 0 -1 0 0 3004.dat
1 0 290 -120 270 1 0 0 0 1 0 0 0 1 3005.dat
1 0 310 -120 70 0 0 1 0 1 0 -1 0 0 3622.dat
1 72 310 -120 130 0 0 1 0 1 0 -1 0 0 3622.dat
1 72 310 -120 190 1 0 0 0 1 0 0 0 1 3005.dat
1 0 310 -120 220 0 0 1 0 1 0 -1 0 0 3004.dat
1 0 330 -120 160 0 0 1 0 1 0 -1 0 0 3010.dat
1 0 360 -120 160 1 0 0 0 1 0 0 0 1 3003.dat
1 0 350 -120 190 1 0 0 0 1 0 0 0 1 3005.dat
1 0 130 -144 160 0 0 1 0 1 0 -1 0 0 3004.dat
1 72 170 -144 160 1 0 0 0 1 0 0 0 1 3002.dat
1 72 170 -144 190 1 0 0 0 1 0 0 0 1 3622.dat
1 0 180 -144 100 1 0 0 0 1 0 0 0 1 3003.dat
1 0 170 -144 130 1 0 0 0 1 0 0 0 1 3005.dat
1 0 170 -144 210 1 0 0 0 1 0 0 0 1 3005.dat
1 71 170 -144 230 1 0 0 0 1 0 0 0 1 3005.dat
1 484 220 -144 250 1 0 0 0 1 0 0 0 1 3009.dat
1 484 170 -144 280 0 0 1 0 1 0 -1 0 0 3004.dat
1 0 240 -144 20 1 0 0 0 1 0 0 0 1 2456.dat
1 0 190 -144 60 0 0 1 0 1 0 -1 0 0 3004.dat
1 72 190 -144 130 1 0 0 0 1 0 0 0 1 3005.dat
1 72 190 -144 210 1 0 0 0 1 0 0 0 1 3005.dat
1 0 220 -144 270 1 0 0 0 1 0 0 0 1 3010.dat
1 484 190 -144 310 0 0 1 0 1 0 -1 0 0 3622.dat
1 0 210 -144 290 1 0 0 0 1 0 0 0 1 3005.dat
1 484 210 -144 330 1 0 0 0 1 0 0 0 1 3005.dat
1 0 240 -144 310 1 0 0 0 1 0 0 0 1 3004.dat
1 484 240 -144 350 1 0 0 0 1 0 0 0 1 3004.dat
1 0 260 -144 290 1 0 0 0 1 0 0 0 1 3004.dat
1 484 260 -144 330 1 0 0 0 1 0 0 0 1 3004.dat
1 72 270 -144 160 0 0 1 0 1 0 -1 0 0 3010.dat
1 72 270 -144 210 1 0 0 0 1 0 0 0 1 3005.dat
1 0 270 -144 270 1 0 0 0 1 0 0 0 1 3005.dat
1 484 280 -144 310 1 0 0 0 1 0 0 0 1 3004.dat
1 0 290 -144 80 0 0 1 0 1 0 -1 0 0 3010.dat
1 0 290 -144 130 1 0 0 0 1 0 0 0 1 3005.dat
1 72 300 -144 170 0 0 1 0 1 0 -1 0 0 3002.dat
1 0 290 -144 210 1 0 0 0 1 0 0 0 1 3005.dat
1 71 300 -144 230 1 0 0 0 1 0 0 0 1 3004.dat
1 484 290 -144 270 0 0 1 0 1 0 -1 0 0 3622.dat
1 71 310 -144 110 0 0 1 0 1 0 -1 0 0 3622.dat
1 71 310 -144 210 1 0 0 0 1 0 0 0 1 3005.dat
1 0 330 -144 160 0 0 1 0 1 0 -1 0 0 3004.dat
1 71 170 -168 110 0 0 1 0 1 0 -1 0 0 3622.dat
1 0 170 -168 150 1 0 0 0 1 0 0 0 1 3005.dat
1 484 180 -168 170 1 0 0 0 1 0 0 0 1 3004.dat
1 0 170 -168 190 1 0 0 0 1 0 0 0 1 3005.dat
1 71 170 -168 220 0 0 1 0 1 0 -1 0 0 3004.dat
1 484 220 -168 250 1 0 0 0 1 0 0 0 1 3009.dat
1 308 180 -168 270 1 0 0 0 1 0 0 0 1 3004.dat
1 484 170 -168 290 1 0 0 0 1 0 0 0 1 3005.dat
1 484 240 -168 10 1 0 0 0 1 0 0 0 1 3009.dat
1 484 190 -168 50 0 0 1 0 1 0 -1 0 0 3622.dat
1 71 190 -168 90 1 0 0 0 1 0 0 0 1 3005.dat
1 484 190 -168 110 1 0 0 0 1 0 0 0 1 3005.dat
1 71 190 -168 130 1 0 0 0 1 0 0 0 1 3005.dat
1 484 190 -168 150 1 0 0 0 1 0 0 0 1 3005.dat
1 484 190 -168 190 1 0 0 0 1 0 0 0 1 3005.dat
1 0 190 -168 210 1 0 0 0 1 0 0 0 1 3005.dat
1 71 190 -168 230 1 0 0 0 1 0 0 0 1 3005.dat
1 0 190 -168 300 0 0 1 0 1 0 -1 0 0 3004.dat
1 484 210 -168 320 0 0 1 0 1 0 -1 0 0 3004.dat
1 0 240 -168 340 1 0 0 0 1 0 0 0 1 3003.dat
1 484 280 -168 50 0 0 1 0 1 0 -1 0 0 3002.dat
1 484 270 -168 100 0 0 1 0 1 0 -1 0 0 3004.dat
1 0 280 -168 290 1 0 0 0 1 0 0 0 1 3004.dat
1 0 270 -168 310 1 0 0 0 1 0 0 0 1 3005.dat
1 484 270 -168 330 1 0 0 0 1 0 0 0 1 3005.dat
1 71 300 -168 110 0 0 1 0 1 0 -1 0 0 3002.dat
1 0 300 -168 150 1 0 0 0 1 0 0 0 1 3004.dat
1 484 290 -168 170 1 0 0 0 1 0 0 0 1 3005.dat
1 0 300 -168 190 1 0 0 0 1 0 0 0 1 3004.dat
1 71 300 -168 220 1 0 0 0 1 0 0 0 1 3003.dat
1 484 290 -168 250 1 0 0 0 1 0 0 0 1 3005.dat
1 308 290 -168 270 1 0 0 0 1 0 0 0 1 3005.dat
1 71 170 -192 110 0 0 1 0 1 0 -1 0 0 3622.dat
1 0 190 -192 150 1 0 0 0 1 0 0 0 1 3622.dat
1 0 190 -192 190 1 0 0 0 1 0 0 0 1 3622.dat
1 71 170 -192 220 0 0 1 0 1 0 -1 0 0 3004.dat
1 484 220 -192 20 1 0 0 0 1 0 0 0 1 3001.dat
1 0 200 -192 60 1 0 0 0 1 0 0 0 1 3003.dat
1 71 190 -192 90 1 0 0 0 1 0 0 0 1 3005.dat
1 484 200 -192 110 1 0 0 0 1 0 0 0 1 3004.dat
1 0 190 -192 130 1 0 0 0 1 0 0 0 1 3005.dat
1 0 190 -192 170 1 0 0 0 1 0 0 0 1 3005.dat
1 0 220 -192 210 1 0 0 0 1 0 0 0 1 3010.dat
1 484 200 -192 230 1 0 0 0 1 0 0 0 1 3004.dat
1 484 190 -192 250 1 0 0 0 1 0 0 0 1 3005.dat
1 308 190 -192 270 1 0 0 0 1 0 0 0 1 3005.dat
1 0 190 -192 300 0 0 1 0 1 0 -1 0 0 3004.dat
1 484 210 -192 90 1 0 0 0 1 0 0 0 1 3005.dat
1 72 210 -192 130 1 0 0 0 1 0 0 0 1 3005.dat
1 72 210 -192 170 1 0 0 0 1 0 0 0 1 3005.dat
1 72 230 -192 260 1 0 0 0 1 0 0 0 1 3002.dat
1 72 230 -192 290 1 0 0 0 1 0 0 0 1 3622.dat
1 0 230 -192 320 1 0 0 0 1 0 0 0 1 3002.dat
1 484 230 -192 50 1 0 0 0 1 0 0 0 1 3005.dat
1 72 230 -192 90 0 0 1 0 1 0 -1 0 0 3622.dat
1 0 250 -192 130 1 0 0 0 1 0 0 0 1 3622.dat
1 72 240 -192 150 1 0 0 0 1 0 0 0 1 3004.dat
1 0 250 -192 170 1 0 0 0 1 0 0 0 1 3622.dat
1 484 240 -192 190 1 0 0 0 1 0 0 0 1 3004.dat
1 71 230 -192 230 1 0 0 0 1 0 0 0 1 3005.dat
1 0 260 -192 60 1 0 0 0 1 0 0 0 1 3003.dat
1 72 250 -192 100 0 0 1 0 1 0 -1 0 0 3004.dat
1 484 260 -192 230 1 0 0 0 1 0 0 0 1 3004.dat
1 484 270 -192 20 0 0 1 0 1 0 -1 0 0 3004.dat
1 484 270 -192 90 1 0 0 0 1 0 0 0 1 3005.dat
1 72 270 -192 110 1 0 0 0 1 0 0 0 1 3005.dat
1 0 280 -192 150 1 0 0 0 1 0 0 0 1 3004.dat
1 0 280 -192 190 1 0 0 0 1 0 0 0 1 3004.dat
1 0 270 -192 210 1 0 0 0 1 0 0 0 1 3005.dat
1 484 280 -192 250 1 0 0 0 1 0 0 0 1 3004.dat
1 484 270 -192 270 1 0 0 0 1 0 0 0 1 3005.dat
1 0 280 -192 290 1 0 0 0 1 0 0 0 1 3004.dat
1 0 270 -192 310 1 0 0 0 1 0 0 0 1 3005.dat
1 71 300 -192 110 0 0 1 0 1 0 -1 0 0 3002.dat
1 484 290 -192 170 1 0 0 0 1 0 0 0 1 3005.dat
1 71 300 -192 220 1 0 0 0 1 0 0 0 1 3003.dat
1 308 290 -192 270 1 0 0 0 1 0 0 0 1 3005.dat
1 71 310 -192 190 1 0 0 0 1 0 0 0 1 3005.dat
1 0 190 -216 290 1 0 0 0 1 0 0 0 1 3005.dat
1 0 230 -216 70 1 0 0 0 1 0 0 0 1 3622.dat
1 0 210 -216 90 1 0 0 0 1 0 0 0 1 3005.dat
1 72 240 -216 90 1 0 0 0 1 0 0 0 1 3004.dat
1 72 240 -216 240 1 0 0 0 1 0 0 0 1 3003.dat
1 0 270 -216 290 1 0 0 0 1 0 0 0 1 3005.dat
