0 Leveler 24 studs
0 Name: Leveler_24studs.ldr
0 Author: generated
1 72 30 0 30 1 0 0 0 1 0 0 0 1 3622.dat
1 72 350 0 30 1 0 0 0 1 0 0 0 1 3005.dat
1 0 10 0 100 0 0 1 0 1 0 -1 0 0 3009.dat
1 0 350 0 100 0 0 1 0 1 0 -1 0 0 3009.dat
1 72 40 0 100 0 0 1 0 1 0 -1 0 0 2456.dat
1 0 290 0 120 0 0 1 0 1 0 -1 0 0 6111.dat
1 484 270 0 120 0 0 1 0 1 0 -1 0 0 3010.dat
1 484 70 0 120 0 0 1 0 1 0 -1 0 0 3010.dat
1 72 320 0 120 0 0 1 0 1 0 -1 0 0 3006.dat
1 0 10 0 170 1 0 0 0 1 0 0 0 1 3005.dat
0 STEP
1 0 350 0 170 1 0 0 0 1 0 0 0 1 3005.dat
1 484 270 0 170 1 0 0 0 1 0 0 0 1 3005.dat
1 484 70 0 170 1 0 0 0 1 0 0 0 1 3005.dat
1 72 40 0 170 1 0 0 0 1 0 0 0 1 3004.dat
1 72 30 0 200 1 0 0 0 1 0 0 0 1 3002.dat
1 72 350 0 200 0 0 1 0 1 0 -1 0 0 3004.dat
1 72 240 0 230 1 0 0 0 1 0 0 0 1 3010.dat
1 72 290 0 230 1 0 0 0 1 0 0 0 1 3005.dat
1 72 130 0 240 0 0 1 0 1 0 -1 0 0 3004.dat
1 72 260 0 260 1 0 0 0 1 0 0 0 1 3001.dat
0 STEP
1 0 200 0 270 1 0 0 0 1 0 0 0 1 3004.dat
1 0 140 0 280 1 0 0 0 1 0 0 0 1 3003.dat
1 71 170 0 280 0 0 1 0 1 0 -1 0 0 3004.dat
1 72 110 0 280 0 0 1 0 1 0 -1 0 0 3009.dat
1 0 220 0 290 1 0 0 0 1 0 0 0 1 3004.dat
1 71 190 0 290 1 0 0 0 1 0 0 0 1 3005.dat
1 72 290 0 300 0 0 1 0 1 0 -1 0 0 3004.dat
1 72 80 0 300 0 0 1 0 1 0 -1 0 0 3007.dat
1 0 170 0 310 1 0 0 0 1 0 0 0 1 3005.dat
1 72 260 0 340 0 0 1 0 1 0 -1 0 0 2456.dat
0 STEP
1 0 170 0 370 1 0 0 0 1 0 0 0 1 3005.dat
1 72 80 0 390 1 0 0 0 1 0 0 0 1 3004.dat
1 0 290 0 410 1 0 0 0 1 0 0 0 1 3622.dat
1 0 60 0 410 1 0 0 0 1 0 0 0 1 3004.dat
1 72 90 0 410 1 0 0 0 1 0 0 0 1 3005.dat
1 72 250 0 430 0 0 1 0 1 0 -1 0 0 3622.dat
1 72 270 0 440 0 0 1 0 1 0 -1 0 0 3004.dat
1 72 80 0 440 1 0 0 0 1 0 0 0 1 3003.dat
1 71 260 0 470 1 0 0 0 1 0 0 0 1 3004.dat
1 71 80 0 470 1 0 0 0 1 0 0 0 1 3004.dat
0 STEP
1 72 30 -24 20 1 0 0 0 1 0 0 0 1 3002.dat
1 72 320 -24 20 1 0 0 0 1 0 0 0 1 3003.dat
1 72 350 -24 30 1 0 0 0 1 0 0 0 1 3005.dat
1 0 290 -24 50 0 0 1 0 1 0 -1 0 0 3622.dat
1 0 50 -24 60 0 0 1 0 1 0 -1 0 0 3004.dat
1 484 280 -24 90 1 0 0 0 1 0 0 0 1 3004.dat
1 484 80 -24 90 1 0 0 0 1 0 0 0 1 3010.dat
1 0 340 -24 100 0 0 1 0 1 0 -1 0 0 2456.dat
1 0 290 -24 110 1 0 0 0 1 0 0 0 1 3005.dat
1 72 270 -24 110 1 0 0 0 1 0 0 0 1 3005.dat
0 STEP
1 0 10 -24 120 0 0 1 0 1 0 -1 0 0 3008.dat
1 484 250 -24 120 0 0 1 0 1 0 -1 0 0 3010.dat
1 484 100 -24 130 0 0 1 0 1 0 -1 0 0 3002.dat
1 484 280 -24 130 1 0 0 0 1 0 0 0 1 3004.dat
1 72 70 -24 130 0 0 1 0 1 0 -1 0 0 3622.dat
1 0 50 -24 140 0 0 1 0 1 0 -1 0 0 3010.dat
1 484 290 -24 150 1 0 0 0 1 0 0 0 1 3005.dat
1 72 270 -24 150 1 0 0 0 1 0 0 0 1 3005.dat
1 0 340 -24 170 1 0 0 0 1 0 0 0 1 3004.dat
1 484 270 -24 170 1 0 0 0 1 0 0 0 1 3622.dat
0 STEP
1 484 80 -24 170 1 0 0 0 1 0 0 0 1 3004.dat
1 72 180 -24 170 1 0 0 0 1 0 0 0 1 3009.dat
1 0 320 -24 190 1 0 0 0 1 0 0 0 1 3010.dat
1 0 40 -24 190 1 0 0 0 1 0 0 0 1 3004.dat
1 4 170 -24 190 1 0 0 0 1 0 0 0 1 3622.dat
1 72 100 -24 190 1 0 0 0 1 0 0 0 1 3010.dat
1 72 240 -24 190 1 0 0 0 1 0 0 0 1 3010.dat
1 0 290 -24 210 1 0 0 0 1 0 0 0 1 3005.dat
1 72 120 -24 210 1 0 0 0 1 0 0 0 1 6112.dat
1 72 260 -24 210 1 0 0 0 1 0 0 0 1 3004.dat
0 STEP
1 72 330 -24 210 1 0 0 0 1 0 0 0 1 3622.dat
1 72 180 -24 230 1 0 0 0 1 0 0 0 1 6112.dat
1 0 190 -24 250 1 0 0 0 1 0 0 0 1 3005.dat
1 71 170 -24 250 1 0 0 0 1 0 0 0 1 3005.dat
1 72 100 -24 250 1 0 0 0 1 0 0 0 1 3010.dat
1 72 150 -24 250 1 0 0 0 1 0 0 0 1 3005.dat
1 72 240 -24 250 1 0 0 0 1 0 0 0 1 3010.dat
1 72 290 -24 260 0 0 1 0 1 0 -1 0 0 3004.dat
1 0 180 -24 270 1 0 0 0 1 0 0 0 1 3010.dat
1 72 120 -24 270 1 0 0 0 1 0 0 0 1 3004.dat
0 STEP
1 72 240 -24 280 1 0 0 0 1 0 0 0 1 3003.dat
1 72 70 -24 280 0 0 1 0 1 0 -1 0 0 3004.dat
1 0 160 -24 290 1 0 0 0 1 0 0 0 1 3010.dat
1 0 210 -24 290 1 0 0 0 1 0 0 0 1 3005.dat
1 72 100 -24 290 1 0 0 0 1 0 0 0 1 3004.dat
1 72 280 -24 290 1 0 0 0 1 0 0 0 1 3004.dat
1 484 110 -24 310 1 0 0 0 1 0 0 0 1 3005.dat
1 484 290 -24 310 1 0 0 0 1 0 0 0 1 3005.dat
1 484 260 -24 320 1 0 0 0 1 0 0 0 1 3003.dat
1 484 80 -24 320 1 0 0 0 1 0 0 0 1 3003.dat
0 STEP
1 72 110 -24 330 1 0 0 0 1 0 0 0 1 3005.dat
1 72 290 -24 330 1 0 0 0 1 0 0 0 1 3005.dat
1 72 260 -24 380 0 0 1 0 1 0 -1 0 0 3001.dat
1 72 80 -24 380 0 0 1 0 1 0 -1 0 0 3001.dat
1 72 260 -24 430 1 0 0 0 1 0 0 0 1 3004.dat
1 72 80 -24 430 1 0 0 0 1 0 0 0 1 3004.dat
1 71 260 -24 450 1 0 0 0 1 0 0 0 1 3004.dat
1 71 90 -24 450 1 0 0 0 1 0 0 0 1 3005.dat
1 72 70 -24 450 1 0 0 0 1 0 0 0 1 3005.dat
0 STEP
1 484 160 -48 40 1 0 0 0 1 0 0 0 1 3001.dat
1 484 210 -48 50 0 0 1 0 1 0 -1 0 0 3622.dat
1 72 350 -48 50 0 0 1 0 1 0 -1 0 0 3622.dat
1 0 290 -48 60 0 0 1 0 1 0 -1 0 0 3010.dat
1 72 320 -48 60 0 0 1 0 1 0 -1 0 0 3001.dat
1 484 160 -48 70 1 0 0 0 1 0 0 0 1 3010.dat
1 0 160 -48 90 1 0 0 0 1 0 0 0 1 3010.dat
1 0 210 -48 90 1 0 0 0 1 0 0 0 1 3005.dat
1 0 350 -48 90 1 0 0 0 1 0 0 0 1 3005.dat
1 72 230 -48 90 1 0 0 0 1 0 0 0 1 3005.dat
0 STEP
1 72 20 -48 100 0 0 1 0 1 0 -1 0 0 3007.dat
1 72 50 -48 100 0 0 1 0 1 0 -1 0 0 3008.dat
1 0 290 -48 110 1 0 0 0 1 0 0 0 1 3005.dat
1 72 330 -48 110 1 0 0 0 1 0 0 0 1 3622.dat
1 484 170 -48 120 0 0 1 0 1 0 -1 0 0 3004.dat
1 72 100 -48 120 1 0 0 0 1 0 0 0 1 3001.dat
1 72 150 -48 120 0 0 1 0 1 0 -1 0 0 3004.dat
1 72 220 -48 120 1 0 0 0 1 0 0 0 1 3001.dat
1 72 270 -48 120 0 0 1 0 1 0 -1 0 0 3004.dat
1 0 350 -48 130 1 0 0 0 1 0 0 0 1 3005.dat
0 STEP
1 72 310 -48 130 1 0 0 0 1 0 0 0 1 3622.dat
1 0 160 -48 150 1 0 0 0 1 0 0 0 1 3010.dat
1 0 210 -48 150 1 0 0 0 1 0 0 0 1 3005.dat
1 72 250 -48 150 1 0 0 0 1 0 0 0 1 3622.dat
1 72 90 -48 150 1 0 0 0 1 0 0 0 1 3622.dat
1 72 330 -48 160 1 0 0 0 1 0 0 0 1 3002.dat
1 0 290 -48 170 0 0 1 0 1 0 -1 0 0 3622.dat
1 484 140 -48 170 1 0 0 0 1 0 0 0 1 3004.dat
1 484 210 -48 170 1 0 0 0 1 0 0 0 1 3005.dat
1 72 180 -48 170 1 0 0 0 1 0 0 0 1 3004.dat
0 STEP
1 72 230 -48 180 0 0 1 0 1 0 -1 0 0 3004.dat
1 4 180 -48 190 1 0 0 0 1 0 0 0 1 3010.dat
1 72 110 -48 190 1 0 0 0 1 0 0 0 1 3622.dat
1 72 260 -48 190 1 0 0 0 1 0 0 0 1 3004.dat
1 72 30 -48 190 1 0 0 0 1 0 0 0 1 3622.dat
1 72 330 -48 190 1 0 0 0 1 0 0 0 1 3622.dat
1 72 160 -48 210 1 0 0 0 1 0 0 0 1 6111.dat
1 72 270 -48 210 1 0 0 0 1 0 0 0 1 3005.dat
1 72 240 -48 230 1 0 0 0 1 0 0 0 1 3009.dat
1 72 100 -48 240 1 0 0 0 1 0 0 0 1 3001.dat
0 STEP
1 72 150 -48 240 0 0 1 0 1 0 -1 0 0 3004.dat
1 72 240 -48 250 1 0 0 0 1 0 0 0 1 3010.dat
1 72 290 -48 250 1 0 0 0 1 0 0 0 1 3005.dat
1 0 210 -48 270 1 0 0 0 1 0 0 0 1 3005.dat
1 72 130 -48 270 1 0 0 0 1 0 0 0 1 3005.dat
1 72 250 -48 270 1 0 0 0 1 0 0 0 1 3622.dat
1 484 90 -48 280 0 0 1 0 1 0 -1 0 0 3004.dat
1 72 70 -48 280 0 0 1 0 1 0 -1 0 0 3004.dat
1 72 110 -48 290 0 0 1 0 1 0 -1 0 0 3622.dat
1 72 230 -48 290 1 0 0 0 1 0 0 0 1 3005.dat
0 STEP
1 72 280 -48 290 1 0 0 0 1 0 0 0 1 3004.dat
1 484 250 -48 300 0 0 1 0 1 0 -1 0 0 3004.dat
1 484 270 -48 310 1 0 0 0 1 0 0 0 1 3005.dat
1 484 80 -48 310 1 0 0 0 1 0 0 0 1 3004.dat
0 STEP
1 0 130 -72 30 1 0 0 0 1 0 0 0 1 3005.dat
1 484 180 -72 30 1 0 0 0 1 0 0 0 1 3010.dat
1 484 130 -72 50 1 0 0 0 1 0 0 0 1 3005.dat
1 0 230 -72 60 0 0 1 0 1 0 -1 0 0 3010.dat
1 484 210 -72 60 0 0 1 0 1 0 -1 0 0 3004.dat
1 0 130 -72 90 0 0 1 0 1 0 -1 0 0 3622.dat
1 72 150 -72 90 1 0 0 0 1 0 0 0 1 3005.dat
1 0 150 -72 120 0 0 1 0 1 0 -1 0 0 3004.dat
1 0 80 -72 120 1 0 0 0 1 0 0 0 1 3003.dat
1 0 260 -72 130 0 0 1 0 1 0 -1 0 0 3002.dat
0 STEP
1 72 110 -72 130 0 0 1 0 1 0 -1 0 0 3622.dat
1 72 130 -72 130 1 0 0 0 1 0 0 0 1 3005.dat
1 0 210 -72 140 0 0 1 0 1 0 -1 0 0 3009.dat
1 72 230 -72 140 0 0 1 0 1 0 -1 0 0 3010.dat
1 0 130 -72 150 1 0 0 0 1 0 0 0 1 3005.dat
1 0 90 -72 150 1 0 0 0 1 0 0 0 1 3005.dat
1 72 150 -72 150 1 0 0 0 1 0 0 0 1 3005.dat
1 72 130 -72 170 1 0 0 0 1 0 0 0 1 3005.dat
1 72 180 -72 170 1 0 0 0 1 0 0 0 1 3004.dat
1 484 130 -72 190 1 0 0 0 1 0 0 0 1 3005.dat
0 STEP
1 484 190 -72 190 1 0 0 0 1 0 0 0 1 3005.dat
1 72 100 -72 190 1 0 0 0 1 0 0 0 1 3004.dat
1 72 250 -72 190 1 0 0 0 1 0 0 0 1 3622.dat
1 0 150 -72 200 0 0 1 0 1 0 -1 0 0 3010.dat
1 0 170 -72 200 0 0 1 0 1 0 -1 0 0 3004.dat
1 0 200 -72 210 1 0 0 0 1 0 0 0 1 3004.dat
1 484 110 -72 210 1 0 0 0 1 0 0 0 1 3622.dat
1 484 240 -72 210 1 0 0 0 1 0 0 0 1 3004.dat
1 72 270 -72 210 1 0 0 0 1 0 0 0 1 3005.dat
1 72 70 -72 210 1 0 0 0 1 0 0 0 1 3005.dat
0 STEP
1 484 260 -72 230 1 0 0 0 1 0 0 0 1 3004.dat
1 484 90 -72 230 1 0 0 0 1 0 0 0 1 3622.dat
1 72 130 -72 230 1 0 0 0 1 0 0 0 1 3005.dat
1 72 180 -72 230 1 0 0 0 1 0 0 0 1 3004.dat
1 72 230 -72 230 1 0 0 0 1 0 0 0 1 3005.dat
1 72 110 -72 250 1 0 0 0 1 0 0 0 1 3005.dat
1 72 260 -72 250 1 0 0 0 1 0 0 0 1 3004.dat
1 72 70 -72 250 1 0 0 0 1 0 0 0 1 3005.dat
0 STEP
1 0 160 -96 10 1 0 0 0 1 0 0 0 1 3010.dat
1 0 210 -96 10 1 0 0 0 1 0 0 0 1 3005.dat
1 72 130 -96 30 1 0 0 0 1 0 0 0 1 3005.dat
1 72 210 -96 30 1 0 0 0 1 0 0 0 1 3005.dat
1 0 130 -96 50 1 0 0 0 1 0 0 0 1 3005.dat
1 0 210 -96 50 1 0 0 0 1 0 0 0 1 3005.dat
1 0 230 -96 70 1 0 0 0 1 0 0 0 1 3005.dat
1 72 130 -96 70 1 0 0 0 1 0 0 0 1 3005.dat
1 72 210 -96 70 1 0 0 0 1 0 0 0 1 3005.dat
1 0 220 -96 90 1 0 0 0 1 0 0 0 1 3004.dat
0 STEP
1 72 220 -96 110 1 0 0 0 1 0 0 0 1 3004.dat
1 0 130 -96 120 0 0 1 0 1 0 -1 0 0 3010.dat
1 0 260 -96 120 1 0 0 0 1 0 0 0 1 3003.dat
1 0 90 -96 120 0 0 1 0 1 0 -1 0 0 3004.dat
1 72 150 -96 120 0 0 1 0 1 0 -1 0 0 3010.dat
1 72 110 -96 130 0 0 1 0 1 0 -1 0 0 3622.dat
1 0 210 -96 150 0 0 1 0 1 0 -1 0 0 3622.dat
1 0 250 -96 150 1 0 0 0 1 0 0 0 1 3005.dat
1 72 230 -96 150 0 0 1 0 1 0 -1 0 0 3622.dat
1 0 130 -96 170 1 0 0 0 1 0 0 0 1 3005.dat
0 STEP
1 484 160 -96 200 1 0 0 0 1 0 0 0 1 3001.dat
1 484 210 -96 210 0 0 1 0 1 0 -1 0 0 3622.dat
1 484 160 -96 230 1 0 0 0 1 0 0 0 1 3010.dat
1 484 180 -96 250 1 0 0 0 1 0 0 0 1 3010.dat
1 484 170 -96 270 1 0 0 0 1 0 0 0 1 3005.dat
0 STEP
1 484 180 -120 10 1 0 0 0 1 0 0 0 1 3010.dat
1 484 210 -120 40 0 0 1 0 1 0 -1 0 0 3004.dat
1 484 150 -120 50 0 0 1 0 1 0 -1 0 0 3622.dat
1 71 130 -120 70 1 0 0 0 1 0 0 0 1 3005.dat
1 71 220 -120 70 1 0 0 0 1 0 0 0 1 3004.dat
1 0 130 -120 90 1 0 0 0 1 0 0 0 1 3005.dat
1 0 210 -120 90 1 0 0 0 1 0 0 0 1 3005.dat
1 71 230 -120 90 1 0 0 0 1 0 0 0 1 3005.dat
1 0 230 -120 110 1 0 0 0 1 0 0 0 1 3005.dat
1 71 130 -120 110 1 0 0 0 1 0 0 0 1 3005.dat
0 STEP
1 71 210 -120 110 1 0 0 0 1 0 0 0 1 3005.dat
1 72 150 -120 110 1 0 0 0 1 0 0 0 1 3005.dat
1 72 140 -120 130 1 0 0 0 1 0 0 0 1 3004.dat
1 72 220 -120 130 1 0 0 0 1 0 0 0 1 3004.dat
1 0 130 -120 150 1 0 0 0 1 0 0 0 1 3005.dat
1 0 220 -120 150 1 0 0 0 1 0 0 0 1 3004.dat
1 71 130 -120 170 1 0 0 0 1 0 0 0 1 3005.dat
1 71 220 -120 170 1 0 0 0 1 0 0 0 1 3004.dat
1 484 180 -120 190 1 0 0 0 1 0 0 0 1 3009.dat
1 0 150 -120 210 1 0 0 0 1 0 0 0 1 3005.dat
0 STEP
1 484 130 -120 210 1 0 0 0 1 0 0 0 1 3005.dat
1 0 210 -120 220 0 0 1 0 1 0 -1 0 0 3004.dat
1 0 140 -120 230 1 0 0 0 1 0 0 0 1 3004.dat
1 484 190 -120 240 0 0 1 0 1 0 -1 0 0 3004.dat
1 0 170 -120 250 1 0 0 0 1 0 0 0 1 3005.dat
1 484 150 -120 250 1 0 0 0 1 0 0 0 1 3005.dat
1 484 210 -120 250 1 0 0 0 1 0 0 0 1 3005.dat
1 484 170 -120 270 1 0 0 0 1 0 0 0 1 3005.dat
0 STEP
1 484 180 -144 10 1 0 0 0 1 0 0 0 1 3010.dat
1 0 200 -144 30 1 0 0 0 1 0 0 0 1 3004.dat
1 484 170 -144 30 1 0 0 0 1 0 0 0 1 3005.dat
1 0 150 -144 40 0 0 1 0 1 0 -1 0 0 3004.dat
1 0 190 -144 50 1 0 0 0 1 0 0 0 1 3622.dat
1 484 150 -144 70 1 0 0 0 1 0 0 0 1 3005.dat
1 484 210 -144 70 1 0 0 0 1 0 0 0 1 3005.dat
1 72 180 -144 70 1 0 0 0 1 0 0 0 1 3004.dat
1 71 130 -144 80 0 0 1 0 1 0 -1 0 0 3004.dat
1 71 230 -144 80 0 0 1 0 1 0 -1 0 0 3004.dat
0 STEP
1 0 160 -144 90 1 0 0 0 1 0 0 0 1 3004.dat
1 72 190 -144 90 1 0 0 0 1 0 0 0 1 3005.dat
1 0 210 -144 100 0 0 1 0 1 0 -1 0 0 3004.dat
1 0 230 -144 110 1 0 0 0 1 0 0 0 1 3005.dat
1 72 180 -144 110 1 0 0 0 1 0 0 0 1 3004.dat
1 0 140 -144 130 0 0 1 0 1 0 -1 0 0 3002.dat
1 0 190 -144 140 1 0 0 0 1 0 0 0 1 3002.dat
1 0 230 -144 150 1 0 0 0 1 0 0 0 1 3005.dat
1 484 150 -144 170 1 0 0 0 1 0 0 0 1 3005.dat
1 71 130 -144 170 1 0 0 0 1 0 0 0 1 3005.dat
0 STEP
1 71 220 -144 170 1 0 0 0 1 0 0 0 1 3004.dat
1 484 140 -144 190 1 0 0 0 1 0 0 0 1 3004.dat
1 484 210 -144 190 1 0 0 0 1 0 0 0 1 3005.dat
1 72 180 -144 200 0 0 1 0 1 0 -1 0 0 3001.dat
1 0 140 -144 220 1 0 0 0 1 0 0 0 1 3003.dat
1 0 210 -144 220 0 0 1 0 1 0 -1 0 0 3004.dat
1 0 180 -144 250 1 0 0 0 1 0 0 0 1 3004.dat
0 STEP
1 72 180 -168 70 1 0 0 0 1 0 0 0 1 3004.dat
1 72 180 -168 180 1 0 0 0 1 0 0 0 1 3003.dat
0 STEP
